<mxfile host="app.diagrams.net" modified="2020-07-28T18:48:23.792Z" agent="5.0 (Windows)" etag="GvoplX_MQsQV7UwF3mO6" version="13.5.4" type="github">
  <diagram id="H_YCSQwmEfNGAqCZiCqU" name="Page-1">
    <mxGraphModel dx="1422" dy="791" grid="1" gridSize="10" guides="1" tooltips="1" connect="1" arrows="1" fold="1" page="1" pageScale="1" pageWidth="827" pageHeight="1169" math="0" shadow="0">
      <root>
        <mxCell id="0" />
        <mxCell id="1" parent="0" />
        <mxCell id="jaiPWfwtfeqF_VilXt1v-1" value="" style="ellipse;whiteSpace=wrap;html=1;aspect=fixed;" vertex="1" parent="1">
          <mxGeometry x="250" y="95" width="10" height="10" as="geometry" />
        </mxCell>
        <mxCell id="jaiPWfwtfeqF_VilXt1v-2" value="" style="whiteSpace=wrap;html=1;aspect=fixed;" vertex="1" parent="1">
          <mxGeometry x="80" y="80" width="40" height="40" as="geometry" />
        </mxCell>
        <mxCell id="jaiPWfwtfeqF_VilXt1v-3" value="" style="whiteSpace=wrap;html=1;aspect=fixed;" vertex="1" parent="1">
          <mxGeometry x="120" y="80" width="40" height="40" as="geometry" />
        </mxCell>
        <mxCell id="jaiPWfwtfeqF_VilXt1v-6" value="" style="whiteSpace=wrap;html=1;aspect=fixed;" vertex="1" parent="1">
          <mxGeometry x="160" y="80" width="40" height="40" as="geometry" />
        </mxCell>
        <mxCell id="jaiPWfwtfeqF_VilXt1v-7" value="" style="whiteSpace=wrap;html=1;aspect=fixed;" vertex="1" parent="1">
          <mxGeometry x="200" y="80" width="40" height="40" as="geometry" />
        </mxCell>
        <mxCell id="jaiPWfwtfeqF_VilXt1v-8" value="" style="whiteSpace=wrap;html=1;aspect=fixed;" vertex="1" parent="1">
          <mxGeometry x="320" y="80" width="40" height="40" as="geometry" />
        </mxCell>
        <mxCell id="jaiPWfwtfeqF_VilXt1v-9" value="" style="whiteSpace=wrap;html=1;aspect=fixed;" vertex="1" parent="1">
          <mxGeometry x="360" y="80" width="40" height="40" as="geometry" />
        </mxCell>
        <mxCell id="jaiPWfwtfeqF_VilXt1v-10" value="" style="whiteSpace=wrap;html=1;aspect=fixed;" vertex="1" parent="1">
          <mxGeometry x="400" y="80" width="40" height="40" as="geometry" />
        </mxCell>
        <mxCell id="jaiPWfwtfeqF_VilXt1v-11" value="" style="whiteSpace=wrap;html=1;aspect=fixed;" vertex="1" parent="1">
          <mxGeometry x="440" y="80" width="40" height="40" as="geometry" />
        </mxCell>
        <mxCell id="jaiPWfwtfeqF_VilXt1v-12" value="" style="ellipse;whiteSpace=wrap;html=1;aspect=fixed;" vertex="1" parent="1">
          <mxGeometry x="270" y="95" width="10" height="10" as="geometry" />
        </mxCell>
        <mxCell id="jaiPWfwtfeqF_VilXt1v-13" value="" style="ellipse;whiteSpace=wrap;html=1;aspect=fixed;" vertex="1" parent="1">
          <mxGeometry x="290" y="95" width="10" height="10" as="geometry" />
        </mxCell>
        <mxCell id="jaiPWfwtfeqF_VilXt1v-16" value="" style="shape=curlyBracket;whiteSpace=wrap;html=1;rounded=1;rotation=90;" vertex="1" parent="1">
          <mxGeometry x="270" y="-140" width="20" height="397.5" as="geometry" />
        </mxCell>
        <mxCell id="jaiPWfwtfeqF_VilXt1v-17" value="28" style="text;html=1;strokeColor=none;fillColor=none;align=center;verticalAlign=middle;whiteSpace=wrap;rounded=0;fontSize=18;" vertex="1" parent="1">
          <mxGeometry x="260" y="30" width="40" height="20" as="geometry" />
        </mxCell>
        <mxCell id="jaiPWfwtfeqF_VilXt1v-18" value="" style="ellipse;whiteSpace=wrap;html=1;aspect=fixed;" vertex="1" parent="1">
          <mxGeometry x="250" y="95" width="10" height="10" as="geometry" />
        </mxCell>
        <mxCell id="jaiPWfwtfeqF_VilXt1v-19" value="" style="whiteSpace=wrap;html=1;aspect=fixed;" vertex="1" parent="1">
          <mxGeometry x="80" y="80" width="40" height="40" as="geometry" />
        </mxCell>
        <mxCell id="jaiPWfwtfeqF_VilXt1v-20" value="" style="whiteSpace=wrap;html=1;aspect=fixed;" vertex="1" parent="1">
          <mxGeometry x="120" y="80" width="40" height="40" as="geometry" />
        </mxCell>
        <mxCell id="jaiPWfwtfeqF_VilXt1v-21" value="" style="whiteSpace=wrap;html=1;aspect=fixed;" vertex="1" parent="1">
          <mxGeometry x="160" y="80" width="40" height="40" as="geometry" />
        </mxCell>
        <mxCell id="jaiPWfwtfeqF_VilXt1v-22" value="" style="whiteSpace=wrap;html=1;aspect=fixed;" vertex="1" parent="1">
          <mxGeometry x="200" y="80" width="40" height="40" as="geometry" />
        </mxCell>
        <mxCell id="jaiPWfwtfeqF_VilXt1v-23" value="" style="whiteSpace=wrap;html=1;aspect=fixed;" vertex="1" parent="1">
          <mxGeometry x="320" y="80" width="40" height="40" as="geometry" />
        </mxCell>
        <mxCell id="jaiPWfwtfeqF_VilXt1v-24" value="" style="whiteSpace=wrap;html=1;aspect=fixed;" vertex="1" parent="1">
          <mxGeometry x="360" y="80" width="40" height="40" as="geometry" />
        </mxCell>
        <mxCell id="jaiPWfwtfeqF_VilXt1v-25" value="" style="whiteSpace=wrap;html=1;aspect=fixed;" vertex="1" parent="1">
          <mxGeometry x="400" y="80" width="40" height="40" as="geometry" />
        </mxCell>
        <mxCell id="jaiPWfwtfeqF_VilXt1v-26" value="" style="whiteSpace=wrap;html=1;aspect=fixed;" vertex="1" parent="1">
          <mxGeometry x="440" y="80" width="40" height="40" as="geometry" />
        </mxCell>
        <mxCell id="jaiPWfwtfeqF_VilXt1v-27" value="" style="ellipse;whiteSpace=wrap;html=1;aspect=fixed;" vertex="1" parent="1">
          <mxGeometry x="270" y="95" width="10" height="10" as="geometry" />
        </mxCell>
        <mxCell id="jaiPWfwtfeqF_VilXt1v-28" value="" style="ellipse;whiteSpace=wrap;html=1;aspect=fixed;" vertex="1" parent="1">
          <mxGeometry x="290" y="95" width="10" height="10" as="geometry" />
        </mxCell>
        <mxCell id="jaiPWfwtfeqF_VilXt1v-29" value="" style="shape=curlyBracket;whiteSpace=wrap;html=1;rounded=1;rotation=0;" vertex="1" parent="1">
          <mxGeometry x="50" y="80" width="20" height="397.5" as="geometry" />
        </mxCell>
        <mxCell id="jaiPWfwtfeqF_VilXt1v-30" value="28" style="text;html=1;strokeColor=none;fillColor=none;align=center;verticalAlign=middle;whiteSpace=wrap;rounded=0;fontSize=18;" vertex="1" parent="1">
          <mxGeometry x="260" y="30" width="40" height="20" as="geometry" />
        </mxCell>
        <mxCell id="jaiPWfwtfeqF_VilXt1v-39" value="" style="whiteSpace=wrap;html=1;aspect=fixed;" vertex="1" parent="1">
          <mxGeometry x="80" y="120" width="40" height="40" as="geometry" />
        </mxCell>
        <mxCell id="jaiPWfwtfeqF_VilXt1v-40" value="" style="whiteSpace=wrap;html=1;aspect=fixed;" vertex="1" parent="1">
          <mxGeometry x="80" y="160" width="40" height="40" as="geometry" />
        </mxCell>
        <mxCell id="jaiPWfwtfeqF_VilXt1v-42" value="" style="whiteSpace=wrap;html=1;aspect=fixed;" vertex="1" parent="1">
          <mxGeometry x="80" y="200" width="40" height="40" as="geometry" />
        </mxCell>
        <mxCell id="jaiPWfwtfeqF_VilXt1v-43" value="" style="ellipse;whiteSpace=wrap;html=1;aspect=fixed;" vertex="1" parent="1">
          <mxGeometry x="95" y="257.5" width="10" height="10" as="geometry" />
        </mxCell>
        <mxCell id="jaiPWfwtfeqF_VilXt1v-44" value="" style="ellipse;whiteSpace=wrap;html=1;aspect=fixed;" vertex="1" parent="1">
          <mxGeometry x="95" y="280" width="10" height="10" as="geometry" />
        </mxCell>
        <mxCell id="jaiPWfwtfeqF_VilXt1v-45" value="" style="ellipse;whiteSpace=wrap;html=1;aspect=fixed;" vertex="1" parent="1">
          <mxGeometry x="95" y="300" width="10" height="10" as="geometry" />
        </mxCell>
        <mxCell id="jaiPWfwtfeqF_VilXt1v-46" value="" style="whiteSpace=wrap;html=1;aspect=fixed;" vertex="1" parent="1">
          <mxGeometry x="320" y="80" width="40" height="40" as="geometry" />
        </mxCell>
        <mxCell id="jaiPWfwtfeqF_VilXt1v-47" value="" style="whiteSpace=wrap;html=1;aspect=fixed;" vertex="1" parent="1">
          <mxGeometry x="80" y="320" width="40" height="40" as="geometry" />
        </mxCell>
        <mxCell id="jaiPWfwtfeqF_VilXt1v-48" value="" style="whiteSpace=wrap;html=1;aspect=fixed;" vertex="1" parent="1">
          <mxGeometry x="80" y="320" width="40" height="40" as="geometry" />
        </mxCell>
        <mxCell id="jaiPWfwtfeqF_VilXt1v-49" value="" style="whiteSpace=wrap;html=1;aspect=fixed;" vertex="1" parent="1">
          <mxGeometry x="80" y="360" width="40" height="40" as="geometry" />
        </mxCell>
        <mxCell id="jaiPWfwtfeqF_VilXt1v-50" value="" style="whiteSpace=wrap;html=1;aspect=fixed;" vertex="1" parent="1">
          <mxGeometry x="80" y="400" width="40" height="40" as="geometry" />
        </mxCell>
        <mxCell id="jaiPWfwtfeqF_VilXt1v-51" value="" style="whiteSpace=wrap;html=1;aspect=fixed;" vertex="1" parent="1">
          <mxGeometry x="80" y="440" width="40" height="40" as="geometry" />
        </mxCell>
        <mxCell id="jaiPWfwtfeqF_VilXt1v-52" value="" style="shape=curlyBracket;whiteSpace=wrap;html=1;rounded=1;rotation=90;" vertex="1" parent="1">
          <mxGeometry x="270" y="-140" width="20" height="397.5" as="geometry" />
        </mxCell>
        <mxCell id="jaiPWfwtfeqF_VilXt1v-53" value="28" style="text;html=1;strokeColor=none;fillColor=none;align=center;verticalAlign=middle;whiteSpace=wrap;rounded=0;fontSize=18;" vertex="1" parent="1">
          <mxGeometry x="20" y="268.75" width="40" height="20" as="geometry" />
        </mxCell>
        <mxCell id="jaiPWfwtfeqF_VilXt1v-54" value="" style="whiteSpace=wrap;html=1;aspect=fixed;" vertex="1" parent="1">
          <mxGeometry x="120" y="120" width="40" height="40" as="geometry" />
        </mxCell>
        <mxCell id="jaiPWfwtfeqF_VilXt1v-55" value="" style="whiteSpace=wrap;html=1;aspect=fixed;" vertex="1" parent="1">
          <mxGeometry x="160" y="120" width="40" height="40" as="geometry" />
        </mxCell>
        <mxCell id="jaiPWfwtfeqF_VilXt1v-56" value="" style="whiteSpace=wrap;html=1;aspect=fixed;" vertex="1" parent="1">
          <mxGeometry x="200" y="120" width="40" height="40" as="geometry" />
        </mxCell>
        <mxCell id="jaiPWfwtfeqF_VilXt1v-57" value="" style="whiteSpace=wrap;html=1;aspect=fixed;" vertex="1" parent="1">
          <mxGeometry x="240" y="120" width="40" height="40" as="geometry" />
        </mxCell>
        <mxCell id="jaiPWfwtfeqF_VilXt1v-58" value="" style="whiteSpace=wrap;html=1;aspect=fixed;" vertex="1" parent="1">
          <mxGeometry x="120" y="120" width="40" height="40" as="geometry" />
        </mxCell>
        <mxCell id="jaiPWfwtfeqF_VilXt1v-59" value="" style="whiteSpace=wrap;html=1;aspect=fixed;" vertex="1" parent="1">
          <mxGeometry x="160" y="120" width="40" height="40" as="geometry" />
        </mxCell>
        <mxCell id="jaiPWfwtfeqF_VilXt1v-60" value="" style="whiteSpace=wrap;html=1;aspect=fixed;" vertex="1" parent="1">
          <mxGeometry x="200" y="120" width="40" height="40" as="geometry" />
        </mxCell>
        <mxCell id="jaiPWfwtfeqF_VilXt1v-61" value="" style="whiteSpace=wrap;html=1;aspect=fixed;" vertex="1" parent="1">
          <mxGeometry x="240" y="120" width="40" height="40" as="geometry" />
        </mxCell>
        <mxCell id="jaiPWfwtfeqF_VilXt1v-62" value="" style="whiteSpace=wrap;html=1;aspect=fixed;" vertex="1" parent="1">
          <mxGeometry x="120" y="120" width="40" height="40" as="geometry" />
        </mxCell>
        <mxCell id="jaiPWfwtfeqF_VilXt1v-63" value="" style="whiteSpace=wrap;html=1;aspect=fixed;" vertex="1" parent="1">
          <mxGeometry x="280" y="120" width="40" height="40" as="geometry" />
        </mxCell>
        <mxCell id="jaiPWfwtfeqF_VilXt1v-64" value="" style="whiteSpace=wrap;html=1;aspect=fixed;" vertex="1" parent="1">
          <mxGeometry x="320" y="120" width="40" height="40" as="geometry" />
        </mxCell>
        <mxCell id="jaiPWfwtfeqF_VilXt1v-65" value="" style="whiteSpace=wrap;html=1;aspect=fixed;" vertex="1" parent="1">
          <mxGeometry x="360" y="120" width="40" height="40" as="geometry" />
        </mxCell>
        <mxCell id="jaiPWfwtfeqF_VilXt1v-66" value="" style="whiteSpace=wrap;html=1;aspect=fixed;" vertex="1" parent="1">
          <mxGeometry x="400" y="120" width="40" height="40" as="geometry" />
        </mxCell>
        <mxCell id="jaiPWfwtfeqF_VilXt1v-67" value="" style="whiteSpace=wrap;html=1;aspect=fixed;" vertex="1" parent="1">
          <mxGeometry x="280" y="120" width="40" height="40" as="geometry" />
        </mxCell>
        <mxCell id="jaiPWfwtfeqF_VilXt1v-68" value="" style="whiteSpace=wrap;html=1;aspect=fixed;" vertex="1" parent="1">
          <mxGeometry x="320" y="120" width="40" height="40" as="geometry" />
        </mxCell>
        <mxCell id="jaiPWfwtfeqF_VilXt1v-69" value="" style="whiteSpace=wrap;html=1;aspect=fixed;" vertex="1" parent="1">
          <mxGeometry x="360" y="120" width="40" height="40" as="geometry" />
        </mxCell>
        <mxCell id="jaiPWfwtfeqF_VilXt1v-70" value="" style="whiteSpace=wrap;html=1;aspect=fixed;" vertex="1" parent="1">
          <mxGeometry x="400" y="120" width="40" height="40" as="geometry" />
        </mxCell>
        <mxCell id="jaiPWfwtfeqF_VilXt1v-71" value="" style="whiteSpace=wrap;html=1;aspect=fixed;" vertex="1" parent="1">
          <mxGeometry x="280" y="120" width="40" height="40" as="geometry" />
        </mxCell>
        <mxCell id="jaiPWfwtfeqF_VilXt1v-72" value="" style="whiteSpace=wrap;html=1;aspect=fixed;" vertex="1" parent="1">
          <mxGeometry x="440" y="120" width="40" height="40" as="geometry" />
        </mxCell>
        <mxCell id="jaiPWfwtfeqF_VilXt1v-73" value="" style="whiteSpace=wrap;html=1;aspect=fixed;" vertex="1" parent="1">
          <mxGeometry x="120" y="160" width="40" height="40" as="geometry" />
        </mxCell>
        <mxCell id="jaiPWfwtfeqF_VilXt1v-74" value="" style="whiteSpace=wrap;html=1;aspect=fixed;" vertex="1" parent="1">
          <mxGeometry x="160" y="160" width="40" height="40" as="geometry" />
        </mxCell>
        <mxCell id="jaiPWfwtfeqF_VilXt1v-75" value="" style="whiteSpace=wrap;html=1;aspect=fixed;" vertex="1" parent="1">
          <mxGeometry x="200" y="160" width="40" height="40" as="geometry" />
        </mxCell>
        <mxCell id="jaiPWfwtfeqF_VilXt1v-76" value="" style="whiteSpace=wrap;html=1;aspect=fixed;" vertex="1" parent="1">
          <mxGeometry x="240" y="160" width="40" height="40" as="geometry" />
        </mxCell>
        <mxCell id="jaiPWfwtfeqF_VilXt1v-77" value="" style="whiteSpace=wrap;html=1;aspect=fixed;" vertex="1" parent="1">
          <mxGeometry x="120" y="160" width="40" height="40" as="geometry" />
        </mxCell>
        <mxCell id="jaiPWfwtfeqF_VilXt1v-78" value="" style="whiteSpace=wrap;html=1;aspect=fixed;" vertex="1" parent="1">
          <mxGeometry x="160" y="160" width="40" height="40" as="geometry" />
        </mxCell>
        <mxCell id="jaiPWfwtfeqF_VilXt1v-79" value="" style="whiteSpace=wrap;html=1;aspect=fixed;" vertex="1" parent="1">
          <mxGeometry x="200" y="160" width="40" height="40" as="geometry" />
        </mxCell>
        <mxCell id="jaiPWfwtfeqF_VilXt1v-80" value="" style="whiteSpace=wrap;html=1;aspect=fixed;" vertex="1" parent="1">
          <mxGeometry x="240" y="160" width="40" height="40" as="geometry" />
        </mxCell>
        <mxCell id="jaiPWfwtfeqF_VilXt1v-81" value="" style="whiteSpace=wrap;html=1;aspect=fixed;" vertex="1" parent="1">
          <mxGeometry x="120" y="160" width="40" height="40" as="geometry" />
        </mxCell>
        <mxCell id="jaiPWfwtfeqF_VilXt1v-82" value="" style="whiteSpace=wrap;html=1;aspect=fixed;" vertex="1" parent="1">
          <mxGeometry x="280" y="160" width="40" height="40" as="geometry" />
        </mxCell>
        <mxCell id="jaiPWfwtfeqF_VilXt1v-83" value="" style="whiteSpace=wrap;html=1;aspect=fixed;" vertex="1" parent="1">
          <mxGeometry x="320" y="160" width="40" height="40" as="geometry" />
        </mxCell>
        <mxCell id="jaiPWfwtfeqF_VilXt1v-84" value="" style="whiteSpace=wrap;html=1;aspect=fixed;" vertex="1" parent="1">
          <mxGeometry x="360" y="160" width="40" height="40" as="geometry" />
        </mxCell>
        <mxCell id="jaiPWfwtfeqF_VilXt1v-85" value="" style="whiteSpace=wrap;html=1;aspect=fixed;" vertex="1" parent="1">
          <mxGeometry x="400" y="160" width="40" height="40" as="geometry" />
        </mxCell>
        <mxCell id="jaiPWfwtfeqF_VilXt1v-86" value="" style="whiteSpace=wrap;html=1;aspect=fixed;" vertex="1" parent="1">
          <mxGeometry x="280" y="160" width="40" height="40" as="geometry" />
        </mxCell>
        <mxCell id="jaiPWfwtfeqF_VilXt1v-87" value="" style="whiteSpace=wrap;html=1;aspect=fixed;" vertex="1" parent="1">
          <mxGeometry x="320" y="160" width="40" height="40" as="geometry" />
        </mxCell>
        <mxCell id="jaiPWfwtfeqF_VilXt1v-88" value="" style="whiteSpace=wrap;html=1;aspect=fixed;" vertex="1" parent="1">
          <mxGeometry x="360" y="160" width="40" height="40" as="geometry" />
        </mxCell>
        <mxCell id="jaiPWfwtfeqF_VilXt1v-89" value="" style="whiteSpace=wrap;html=1;aspect=fixed;" vertex="1" parent="1">
          <mxGeometry x="400" y="160" width="40" height="40" as="geometry" />
        </mxCell>
        <mxCell id="jaiPWfwtfeqF_VilXt1v-90" value="" style="whiteSpace=wrap;html=1;aspect=fixed;" vertex="1" parent="1">
          <mxGeometry x="280" y="160" width="40" height="40" as="geometry" />
        </mxCell>
        <mxCell id="jaiPWfwtfeqF_VilXt1v-91" value="" style="whiteSpace=wrap;html=1;aspect=fixed;" vertex="1" parent="1">
          <mxGeometry x="440" y="160" width="40" height="40" as="geometry" />
        </mxCell>
        <mxCell id="jaiPWfwtfeqF_VilXt1v-92" value="" style="whiteSpace=wrap;html=1;aspect=fixed;" vertex="1" parent="1">
          <mxGeometry x="120" y="200" width="40" height="40" as="geometry" />
        </mxCell>
        <mxCell id="jaiPWfwtfeqF_VilXt1v-93" value="" style="whiteSpace=wrap;html=1;aspect=fixed;" vertex="1" parent="1">
          <mxGeometry x="160" y="200" width="40" height="40" as="geometry" />
        </mxCell>
        <mxCell id="jaiPWfwtfeqF_VilXt1v-94" value="" style="whiteSpace=wrap;html=1;aspect=fixed;" vertex="1" parent="1">
          <mxGeometry x="200" y="200" width="40" height="40" as="geometry" />
        </mxCell>
        <mxCell id="jaiPWfwtfeqF_VilXt1v-95" value="" style="whiteSpace=wrap;html=1;aspect=fixed;" vertex="1" parent="1">
          <mxGeometry x="240" y="200" width="40" height="40" as="geometry" />
        </mxCell>
        <mxCell id="jaiPWfwtfeqF_VilXt1v-96" value="" style="whiteSpace=wrap;html=1;aspect=fixed;" vertex="1" parent="1">
          <mxGeometry x="120" y="200" width="40" height="40" as="geometry" />
        </mxCell>
        <mxCell id="jaiPWfwtfeqF_VilXt1v-97" value="" style="whiteSpace=wrap;html=1;aspect=fixed;" vertex="1" parent="1">
          <mxGeometry x="160" y="200" width="40" height="40" as="geometry" />
        </mxCell>
        <mxCell id="jaiPWfwtfeqF_VilXt1v-98" value="" style="whiteSpace=wrap;html=1;aspect=fixed;" vertex="1" parent="1">
          <mxGeometry x="200" y="200" width="40" height="40" as="geometry" />
        </mxCell>
        <mxCell id="jaiPWfwtfeqF_VilXt1v-99" value="" style="whiteSpace=wrap;html=1;aspect=fixed;" vertex="1" parent="1">
          <mxGeometry x="240" y="200" width="40" height="40" as="geometry" />
        </mxCell>
        <mxCell id="jaiPWfwtfeqF_VilXt1v-100" value="" style="whiteSpace=wrap;html=1;aspect=fixed;" vertex="1" parent="1">
          <mxGeometry x="120" y="200" width="40" height="40" as="geometry" />
        </mxCell>
        <mxCell id="jaiPWfwtfeqF_VilXt1v-101" value="" style="whiteSpace=wrap;html=1;aspect=fixed;" vertex="1" parent="1">
          <mxGeometry x="280" y="200" width="40" height="40" as="geometry" />
        </mxCell>
        <mxCell id="jaiPWfwtfeqF_VilXt1v-102" value="" style="whiteSpace=wrap;html=1;aspect=fixed;" vertex="1" parent="1">
          <mxGeometry x="320" y="200" width="40" height="40" as="geometry" />
        </mxCell>
        <mxCell id="jaiPWfwtfeqF_VilXt1v-103" value="" style="whiteSpace=wrap;html=1;aspect=fixed;" vertex="1" parent="1">
          <mxGeometry x="360" y="200" width="40" height="40" as="geometry" />
        </mxCell>
        <mxCell id="jaiPWfwtfeqF_VilXt1v-104" value="" style="whiteSpace=wrap;html=1;aspect=fixed;" vertex="1" parent="1">
          <mxGeometry x="400" y="200" width="40" height="40" as="geometry" />
        </mxCell>
        <mxCell id="jaiPWfwtfeqF_VilXt1v-105" value="" style="whiteSpace=wrap;html=1;aspect=fixed;" vertex="1" parent="1">
          <mxGeometry x="280" y="200" width="40" height="40" as="geometry" />
        </mxCell>
        <mxCell id="jaiPWfwtfeqF_VilXt1v-106" value="" style="whiteSpace=wrap;html=1;aspect=fixed;" vertex="1" parent="1">
          <mxGeometry x="320" y="200" width="40" height="40" as="geometry" />
        </mxCell>
        <mxCell id="jaiPWfwtfeqF_VilXt1v-107" value="" style="whiteSpace=wrap;html=1;aspect=fixed;" vertex="1" parent="1">
          <mxGeometry x="360" y="200" width="40" height="40" as="geometry" />
        </mxCell>
        <mxCell id="jaiPWfwtfeqF_VilXt1v-108" value="" style="whiteSpace=wrap;html=1;aspect=fixed;" vertex="1" parent="1">
          <mxGeometry x="400" y="200" width="40" height="40" as="geometry" />
        </mxCell>
        <mxCell id="jaiPWfwtfeqF_VilXt1v-109" value="" style="whiteSpace=wrap;html=1;aspect=fixed;" vertex="1" parent="1">
          <mxGeometry x="280" y="200" width="40" height="40" as="geometry" />
        </mxCell>
        <mxCell id="jaiPWfwtfeqF_VilXt1v-110" value="" style="whiteSpace=wrap;html=1;aspect=fixed;" vertex="1" parent="1">
          <mxGeometry x="440" y="200" width="40" height="40" as="geometry" />
        </mxCell>
        <mxCell id="jaiPWfwtfeqF_VilXt1v-111" value="" style="whiteSpace=wrap;html=1;aspect=fixed;" vertex="1" parent="1">
          <mxGeometry x="120" y="240" width="40" height="40" as="geometry" />
        </mxCell>
        <mxCell id="jaiPWfwtfeqF_VilXt1v-112" value="" style="whiteSpace=wrap;html=1;aspect=fixed;" vertex="1" parent="1">
          <mxGeometry x="160" y="240" width="40" height="40" as="geometry" />
        </mxCell>
        <mxCell id="jaiPWfwtfeqF_VilXt1v-113" value="" style="whiteSpace=wrap;html=1;aspect=fixed;" vertex="1" parent="1">
          <mxGeometry x="200" y="240" width="40" height="40" as="geometry" />
        </mxCell>
        <mxCell id="jaiPWfwtfeqF_VilXt1v-114" value="" style="whiteSpace=wrap;html=1;aspect=fixed;" vertex="1" parent="1">
          <mxGeometry x="240" y="240" width="40" height="40" as="geometry" />
        </mxCell>
        <mxCell id="jaiPWfwtfeqF_VilXt1v-115" value="" style="whiteSpace=wrap;html=1;aspect=fixed;" vertex="1" parent="1">
          <mxGeometry x="120" y="240" width="40" height="40" as="geometry" />
        </mxCell>
        <mxCell id="jaiPWfwtfeqF_VilXt1v-116" value="" style="whiteSpace=wrap;html=1;aspect=fixed;" vertex="1" parent="1">
          <mxGeometry x="160" y="240" width="40" height="40" as="geometry" />
        </mxCell>
        <mxCell id="jaiPWfwtfeqF_VilXt1v-117" value="" style="whiteSpace=wrap;html=1;aspect=fixed;" vertex="1" parent="1">
          <mxGeometry x="200" y="240" width="40" height="40" as="geometry" />
        </mxCell>
        <mxCell id="jaiPWfwtfeqF_VilXt1v-118" value="" style="whiteSpace=wrap;html=1;aspect=fixed;" vertex="1" parent="1">
          <mxGeometry x="240" y="240" width="40" height="40" as="geometry" />
        </mxCell>
        <mxCell id="jaiPWfwtfeqF_VilXt1v-119" value="" style="whiteSpace=wrap;html=1;aspect=fixed;" vertex="1" parent="1">
          <mxGeometry x="120" y="240" width="40" height="40" as="geometry" />
        </mxCell>
        <mxCell id="jaiPWfwtfeqF_VilXt1v-120" value="" style="whiteSpace=wrap;html=1;aspect=fixed;" vertex="1" parent="1">
          <mxGeometry x="280" y="240" width="40" height="40" as="geometry" />
        </mxCell>
        <mxCell id="jaiPWfwtfeqF_VilXt1v-121" value="" style="whiteSpace=wrap;html=1;aspect=fixed;" vertex="1" parent="1">
          <mxGeometry x="320" y="240" width="40" height="40" as="geometry" />
        </mxCell>
        <mxCell id="jaiPWfwtfeqF_VilXt1v-122" value="" style="whiteSpace=wrap;html=1;aspect=fixed;" vertex="1" parent="1">
          <mxGeometry x="360" y="240" width="40" height="40" as="geometry" />
        </mxCell>
        <mxCell id="jaiPWfwtfeqF_VilXt1v-123" value="" style="whiteSpace=wrap;html=1;aspect=fixed;" vertex="1" parent="1">
          <mxGeometry x="400" y="240" width="40" height="40" as="geometry" />
        </mxCell>
        <mxCell id="jaiPWfwtfeqF_VilXt1v-124" value="" style="whiteSpace=wrap;html=1;aspect=fixed;" vertex="1" parent="1">
          <mxGeometry x="280" y="240" width="40" height="40" as="geometry" />
        </mxCell>
        <mxCell id="jaiPWfwtfeqF_VilXt1v-125" value="" style="whiteSpace=wrap;html=1;aspect=fixed;" vertex="1" parent="1">
          <mxGeometry x="320" y="240" width="40" height="40" as="geometry" />
        </mxCell>
        <mxCell id="jaiPWfwtfeqF_VilXt1v-126" value="" style="whiteSpace=wrap;html=1;aspect=fixed;" vertex="1" parent="1">
          <mxGeometry x="360" y="240" width="40" height="40" as="geometry" />
        </mxCell>
        <mxCell id="jaiPWfwtfeqF_VilXt1v-127" value="" style="whiteSpace=wrap;html=1;aspect=fixed;" vertex="1" parent="1">
          <mxGeometry x="400" y="240" width="40" height="40" as="geometry" />
        </mxCell>
        <mxCell id="jaiPWfwtfeqF_VilXt1v-128" value="" style="whiteSpace=wrap;html=1;aspect=fixed;" vertex="1" parent="1">
          <mxGeometry x="280" y="240" width="40" height="40" as="geometry" />
        </mxCell>
        <mxCell id="jaiPWfwtfeqF_VilXt1v-129" value="" style="whiteSpace=wrap;html=1;aspect=fixed;" vertex="1" parent="1">
          <mxGeometry x="440" y="240" width="40" height="40" as="geometry" />
        </mxCell>
        <mxCell id="jaiPWfwtfeqF_VilXt1v-130" value="" style="whiteSpace=wrap;html=1;aspect=fixed;" vertex="1" parent="1">
          <mxGeometry x="120" y="280" width="40" height="40" as="geometry" />
        </mxCell>
        <mxCell id="jaiPWfwtfeqF_VilXt1v-131" value="" style="whiteSpace=wrap;html=1;aspect=fixed;" vertex="1" parent="1">
          <mxGeometry x="160" y="280" width="40" height="40" as="geometry" />
        </mxCell>
        <mxCell id="jaiPWfwtfeqF_VilXt1v-132" value="" style="whiteSpace=wrap;html=1;aspect=fixed;" vertex="1" parent="1">
          <mxGeometry x="200" y="280" width="40" height="40" as="geometry" />
        </mxCell>
        <mxCell id="jaiPWfwtfeqF_VilXt1v-133" value="" style="whiteSpace=wrap;html=1;aspect=fixed;" vertex="1" parent="1">
          <mxGeometry x="240" y="280" width="40" height="40" as="geometry" />
        </mxCell>
        <mxCell id="jaiPWfwtfeqF_VilXt1v-134" value="" style="whiteSpace=wrap;html=1;aspect=fixed;" vertex="1" parent="1">
          <mxGeometry x="120" y="280" width="40" height="40" as="geometry" />
        </mxCell>
        <mxCell id="jaiPWfwtfeqF_VilXt1v-135" value="" style="whiteSpace=wrap;html=1;aspect=fixed;" vertex="1" parent="1">
          <mxGeometry x="160" y="280" width="40" height="40" as="geometry" />
        </mxCell>
        <mxCell id="jaiPWfwtfeqF_VilXt1v-136" value="" style="whiteSpace=wrap;html=1;aspect=fixed;" vertex="1" parent="1">
          <mxGeometry x="200" y="280" width="40" height="40" as="geometry" />
        </mxCell>
        <mxCell id="jaiPWfwtfeqF_VilXt1v-137" value="" style="whiteSpace=wrap;html=1;aspect=fixed;" vertex="1" parent="1">
          <mxGeometry x="240" y="280" width="40" height="40" as="geometry" />
        </mxCell>
        <mxCell id="jaiPWfwtfeqF_VilXt1v-138" value="" style="whiteSpace=wrap;html=1;aspect=fixed;" vertex="1" parent="1">
          <mxGeometry x="120" y="280" width="40" height="40" as="geometry" />
        </mxCell>
        <mxCell id="jaiPWfwtfeqF_VilXt1v-139" value="" style="whiteSpace=wrap;html=1;aspect=fixed;" vertex="1" parent="1">
          <mxGeometry x="280" y="280" width="40" height="40" as="geometry" />
        </mxCell>
        <mxCell id="jaiPWfwtfeqF_VilXt1v-140" value="" style="whiteSpace=wrap;html=1;aspect=fixed;" vertex="1" parent="1">
          <mxGeometry x="320" y="280" width="40" height="40" as="geometry" />
        </mxCell>
        <mxCell id="jaiPWfwtfeqF_VilXt1v-141" value="" style="whiteSpace=wrap;html=1;aspect=fixed;" vertex="1" parent="1">
          <mxGeometry x="360" y="280" width="40" height="40" as="geometry" />
        </mxCell>
        <mxCell id="jaiPWfwtfeqF_VilXt1v-142" value="" style="whiteSpace=wrap;html=1;aspect=fixed;" vertex="1" parent="1">
          <mxGeometry x="400" y="280" width="40" height="40" as="geometry" />
        </mxCell>
        <mxCell id="jaiPWfwtfeqF_VilXt1v-143" value="" style="whiteSpace=wrap;html=1;aspect=fixed;" vertex="1" parent="1">
          <mxGeometry x="280" y="280" width="40" height="40" as="geometry" />
        </mxCell>
        <mxCell id="jaiPWfwtfeqF_VilXt1v-144" value="" style="whiteSpace=wrap;html=1;aspect=fixed;" vertex="1" parent="1">
          <mxGeometry x="320" y="280" width="40" height="40" as="geometry" />
        </mxCell>
        <mxCell id="jaiPWfwtfeqF_VilXt1v-145" value="" style="whiteSpace=wrap;html=1;aspect=fixed;" vertex="1" parent="1">
          <mxGeometry x="360" y="280" width="40" height="40" as="geometry" />
        </mxCell>
        <mxCell id="jaiPWfwtfeqF_VilXt1v-146" value="" style="whiteSpace=wrap;html=1;aspect=fixed;" vertex="1" parent="1">
          <mxGeometry x="400" y="280" width="40" height="40" as="geometry" />
        </mxCell>
        <mxCell id="jaiPWfwtfeqF_VilXt1v-147" value="" style="whiteSpace=wrap;html=1;aspect=fixed;" vertex="1" parent="1">
          <mxGeometry x="280" y="280" width="40" height="40" as="geometry" />
        </mxCell>
        <mxCell id="jaiPWfwtfeqF_VilXt1v-148" value="" style="whiteSpace=wrap;html=1;aspect=fixed;" vertex="1" parent="1">
          <mxGeometry x="440" y="280" width="40" height="40" as="geometry" />
        </mxCell>
        <mxCell id="jaiPWfwtfeqF_VilXt1v-149" value="" style="whiteSpace=wrap;html=1;aspect=fixed;" vertex="1" parent="1">
          <mxGeometry x="120" y="320" width="40" height="40" as="geometry" />
        </mxCell>
        <mxCell id="jaiPWfwtfeqF_VilXt1v-150" value="" style="whiteSpace=wrap;html=1;aspect=fixed;" vertex="1" parent="1">
          <mxGeometry x="160" y="320" width="40" height="40" as="geometry" />
        </mxCell>
        <mxCell id="jaiPWfwtfeqF_VilXt1v-151" value="" style="whiteSpace=wrap;html=1;aspect=fixed;" vertex="1" parent="1">
          <mxGeometry x="200" y="320" width="40" height="40" as="geometry" />
        </mxCell>
        <mxCell id="jaiPWfwtfeqF_VilXt1v-152" value="" style="whiteSpace=wrap;html=1;aspect=fixed;" vertex="1" parent="1">
          <mxGeometry x="240" y="320" width="40" height="40" as="geometry" />
        </mxCell>
        <mxCell id="jaiPWfwtfeqF_VilXt1v-153" value="" style="whiteSpace=wrap;html=1;aspect=fixed;" vertex="1" parent="1">
          <mxGeometry x="120" y="320" width="40" height="40" as="geometry" />
        </mxCell>
        <mxCell id="jaiPWfwtfeqF_VilXt1v-154" value="" style="whiteSpace=wrap;html=1;aspect=fixed;" vertex="1" parent="1">
          <mxGeometry x="160" y="320" width="40" height="40" as="geometry" />
        </mxCell>
        <mxCell id="jaiPWfwtfeqF_VilXt1v-155" value="" style="whiteSpace=wrap;html=1;aspect=fixed;" vertex="1" parent="1">
          <mxGeometry x="200" y="320" width="40" height="40" as="geometry" />
        </mxCell>
        <mxCell id="jaiPWfwtfeqF_VilXt1v-156" value="" style="whiteSpace=wrap;html=1;aspect=fixed;" vertex="1" parent="1">
          <mxGeometry x="240" y="320" width="40" height="40" as="geometry" />
        </mxCell>
        <mxCell id="jaiPWfwtfeqF_VilXt1v-157" value="" style="whiteSpace=wrap;html=1;aspect=fixed;" vertex="1" parent="1">
          <mxGeometry x="120" y="320" width="40" height="40" as="geometry" />
        </mxCell>
        <mxCell id="jaiPWfwtfeqF_VilXt1v-158" value="" style="whiteSpace=wrap;html=1;aspect=fixed;" vertex="1" parent="1">
          <mxGeometry x="280" y="320" width="40" height="40" as="geometry" />
        </mxCell>
        <mxCell id="jaiPWfwtfeqF_VilXt1v-159" value="" style="whiteSpace=wrap;html=1;aspect=fixed;" vertex="1" parent="1">
          <mxGeometry x="320" y="320" width="40" height="40" as="geometry" />
        </mxCell>
        <mxCell id="jaiPWfwtfeqF_VilXt1v-160" value="" style="whiteSpace=wrap;html=1;aspect=fixed;" vertex="1" parent="1">
          <mxGeometry x="360" y="320" width="40" height="40" as="geometry" />
        </mxCell>
        <mxCell id="jaiPWfwtfeqF_VilXt1v-161" value="" style="whiteSpace=wrap;html=1;aspect=fixed;" vertex="1" parent="1">
          <mxGeometry x="400" y="320" width="40" height="40" as="geometry" />
        </mxCell>
        <mxCell id="jaiPWfwtfeqF_VilXt1v-162" value="" style="whiteSpace=wrap;html=1;aspect=fixed;" vertex="1" parent="1">
          <mxGeometry x="280" y="320" width="40" height="40" as="geometry" />
        </mxCell>
        <mxCell id="jaiPWfwtfeqF_VilXt1v-163" value="" style="whiteSpace=wrap;html=1;aspect=fixed;" vertex="1" parent="1">
          <mxGeometry x="320" y="320" width="40" height="40" as="geometry" />
        </mxCell>
        <mxCell id="jaiPWfwtfeqF_VilXt1v-164" value="" style="whiteSpace=wrap;html=1;aspect=fixed;" vertex="1" parent="1">
          <mxGeometry x="360" y="320" width="40" height="40" as="geometry" />
        </mxCell>
        <mxCell id="jaiPWfwtfeqF_VilXt1v-165" value="" style="whiteSpace=wrap;html=1;aspect=fixed;" vertex="1" parent="1">
          <mxGeometry x="400" y="320" width="40" height="40" as="geometry" />
        </mxCell>
        <mxCell id="jaiPWfwtfeqF_VilXt1v-166" value="" style="whiteSpace=wrap;html=1;aspect=fixed;" vertex="1" parent="1">
          <mxGeometry x="280" y="320" width="40" height="40" as="geometry" />
        </mxCell>
        <mxCell id="jaiPWfwtfeqF_VilXt1v-167" value="" style="whiteSpace=wrap;html=1;aspect=fixed;" vertex="1" parent="1">
          <mxGeometry x="440" y="320" width="40" height="40" as="geometry" />
        </mxCell>
        <mxCell id="jaiPWfwtfeqF_VilXt1v-168" value="" style="whiteSpace=wrap;html=1;aspect=fixed;" vertex="1" parent="1">
          <mxGeometry x="120" y="360" width="40" height="40" as="geometry" />
        </mxCell>
        <mxCell id="jaiPWfwtfeqF_VilXt1v-169" value="" style="whiteSpace=wrap;html=1;aspect=fixed;" vertex="1" parent="1">
          <mxGeometry x="160" y="360" width="40" height="40" as="geometry" />
        </mxCell>
        <mxCell id="jaiPWfwtfeqF_VilXt1v-170" value="" style="whiteSpace=wrap;html=1;aspect=fixed;" vertex="1" parent="1">
          <mxGeometry x="200" y="360" width="40" height="40" as="geometry" />
        </mxCell>
        <mxCell id="jaiPWfwtfeqF_VilXt1v-171" value="" style="whiteSpace=wrap;html=1;aspect=fixed;" vertex="1" parent="1">
          <mxGeometry x="240" y="360" width="40" height="40" as="geometry" />
        </mxCell>
        <mxCell id="jaiPWfwtfeqF_VilXt1v-172" value="" style="whiteSpace=wrap;html=1;aspect=fixed;" vertex="1" parent="1">
          <mxGeometry x="120" y="360" width="40" height="40" as="geometry" />
        </mxCell>
        <mxCell id="jaiPWfwtfeqF_VilXt1v-173" value="" style="whiteSpace=wrap;html=1;aspect=fixed;" vertex="1" parent="1">
          <mxGeometry x="160" y="360" width="40" height="40" as="geometry" />
        </mxCell>
        <mxCell id="jaiPWfwtfeqF_VilXt1v-174" value="" style="whiteSpace=wrap;html=1;aspect=fixed;" vertex="1" parent="1">
          <mxGeometry x="200" y="360" width="40" height="40" as="geometry" />
        </mxCell>
        <mxCell id="jaiPWfwtfeqF_VilXt1v-175" value="" style="whiteSpace=wrap;html=1;aspect=fixed;" vertex="1" parent="1">
          <mxGeometry x="240" y="360" width="40" height="40" as="geometry" />
        </mxCell>
        <mxCell id="jaiPWfwtfeqF_VilXt1v-176" value="" style="whiteSpace=wrap;html=1;aspect=fixed;" vertex="1" parent="1">
          <mxGeometry x="120" y="360" width="40" height="40" as="geometry" />
        </mxCell>
        <mxCell id="jaiPWfwtfeqF_VilXt1v-177" value="" style="whiteSpace=wrap;html=1;aspect=fixed;" vertex="1" parent="1">
          <mxGeometry x="280" y="360" width="40" height="40" as="geometry" />
        </mxCell>
        <mxCell id="jaiPWfwtfeqF_VilXt1v-178" value="" style="whiteSpace=wrap;html=1;aspect=fixed;" vertex="1" parent="1">
          <mxGeometry x="320" y="360" width="40" height="40" as="geometry" />
        </mxCell>
        <mxCell id="jaiPWfwtfeqF_VilXt1v-179" value="" style="whiteSpace=wrap;html=1;aspect=fixed;" vertex="1" parent="1">
          <mxGeometry x="360" y="360" width="40" height="40" as="geometry" />
        </mxCell>
        <mxCell id="jaiPWfwtfeqF_VilXt1v-180" value="" style="whiteSpace=wrap;html=1;aspect=fixed;" vertex="1" parent="1">
          <mxGeometry x="400" y="360" width="40" height="40" as="geometry" />
        </mxCell>
        <mxCell id="jaiPWfwtfeqF_VilXt1v-181" value="" style="whiteSpace=wrap;html=1;aspect=fixed;" vertex="1" parent="1">
          <mxGeometry x="280" y="360" width="40" height="40" as="geometry" />
        </mxCell>
        <mxCell id="jaiPWfwtfeqF_VilXt1v-182" value="" style="whiteSpace=wrap;html=1;aspect=fixed;" vertex="1" parent="1">
          <mxGeometry x="320" y="360" width="40" height="40" as="geometry" />
        </mxCell>
        <mxCell id="jaiPWfwtfeqF_VilXt1v-183" value="" style="whiteSpace=wrap;html=1;aspect=fixed;" vertex="1" parent="1">
          <mxGeometry x="360" y="360" width="40" height="40" as="geometry" />
        </mxCell>
        <mxCell id="jaiPWfwtfeqF_VilXt1v-184" value="" style="whiteSpace=wrap;html=1;aspect=fixed;" vertex="1" parent="1">
          <mxGeometry x="400" y="360" width="40" height="40" as="geometry" />
        </mxCell>
        <mxCell id="jaiPWfwtfeqF_VilXt1v-185" value="" style="whiteSpace=wrap;html=1;aspect=fixed;" vertex="1" parent="1">
          <mxGeometry x="280" y="360" width="40" height="40" as="geometry" />
        </mxCell>
        <mxCell id="jaiPWfwtfeqF_VilXt1v-186" value="" style="whiteSpace=wrap;html=1;aspect=fixed;" vertex="1" parent="1">
          <mxGeometry x="440" y="360" width="40" height="40" as="geometry" />
        </mxCell>
        <mxCell id="jaiPWfwtfeqF_VilXt1v-187" value="" style="whiteSpace=wrap;html=1;aspect=fixed;" vertex="1" parent="1">
          <mxGeometry x="120" y="400" width="40" height="40" as="geometry" />
        </mxCell>
        <mxCell id="jaiPWfwtfeqF_VilXt1v-188" value="" style="whiteSpace=wrap;html=1;aspect=fixed;" vertex="1" parent="1">
          <mxGeometry x="160" y="400" width="40" height="40" as="geometry" />
        </mxCell>
        <mxCell id="jaiPWfwtfeqF_VilXt1v-189" value="" style="whiteSpace=wrap;html=1;aspect=fixed;" vertex="1" parent="1">
          <mxGeometry x="200" y="400" width="40" height="40" as="geometry" />
        </mxCell>
        <mxCell id="jaiPWfwtfeqF_VilXt1v-190" value="" style="whiteSpace=wrap;html=1;aspect=fixed;" vertex="1" parent="1">
          <mxGeometry x="240" y="400" width="40" height="40" as="geometry" />
        </mxCell>
        <mxCell id="jaiPWfwtfeqF_VilXt1v-191" value="" style="whiteSpace=wrap;html=1;aspect=fixed;" vertex="1" parent="1">
          <mxGeometry x="120" y="400" width="40" height="40" as="geometry" />
        </mxCell>
        <mxCell id="jaiPWfwtfeqF_VilXt1v-192" value="" style="whiteSpace=wrap;html=1;aspect=fixed;" vertex="1" parent="1">
          <mxGeometry x="160" y="400" width="40" height="40" as="geometry" />
        </mxCell>
        <mxCell id="jaiPWfwtfeqF_VilXt1v-193" value="" style="whiteSpace=wrap;html=1;aspect=fixed;" vertex="1" parent="1">
          <mxGeometry x="200" y="400" width="40" height="40" as="geometry" />
        </mxCell>
        <mxCell id="jaiPWfwtfeqF_VilXt1v-194" value="" style="whiteSpace=wrap;html=1;aspect=fixed;" vertex="1" parent="1">
          <mxGeometry x="240" y="400" width="40" height="40" as="geometry" />
        </mxCell>
        <mxCell id="jaiPWfwtfeqF_VilXt1v-195" value="" style="whiteSpace=wrap;html=1;aspect=fixed;" vertex="1" parent="1">
          <mxGeometry x="120" y="400" width="40" height="40" as="geometry" />
        </mxCell>
        <mxCell id="jaiPWfwtfeqF_VilXt1v-196" value="" style="whiteSpace=wrap;html=1;aspect=fixed;" vertex="1" parent="1">
          <mxGeometry x="280" y="400" width="40" height="40" as="geometry" />
        </mxCell>
        <mxCell id="jaiPWfwtfeqF_VilXt1v-197" value="" style="whiteSpace=wrap;html=1;aspect=fixed;" vertex="1" parent="1">
          <mxGeometry x="320" y="400" width="40" height="40" as="geometry" />
        </mxCell>
        <mxCell id="jaiPWfwtfeqF_VilXt1v-198" value="" style="whiteSpace=wrap;html=1;aspect=fixed;" vertex="1" parent="1">
          <mxGeometry x="360" y="400" width="40" height="40" as="geometry" />
        </mxCell>
        <mxCell id="jaiPWfwtfeqF_VilXt1v-199" value="" style="whiteSpace=wrap;html=1;aspect=fixed;" vertex="1" parent="1">
          <mxGeometry x="400" y="400" width="40" height="40" as="geometry" />
        </mxCell>
        <mxCell id="jaiPWfwtfeqF_VilXt1v-200" value="" style="whiteSpace=wrap;html=1;aspect=fixed;" vertex="1" parent="1">
          <mxGeometry x="280" y="400" width="40" height="40" as="geometry" />
        </mxCell>
        <mxCell id="jaiPWfwtfeqF_VilXt1v-201" value="" style="whiteSpace=wrap;html=1;aspect=fixed;" vertex="1" parent="1">
          <mxGeometry x="320" y="400" width="40" height="40" as="geometry" />
        </mxCell>
        <mxCell id="jaiPWfwtfeqF_VilXt1v-202" value="" style="whiteSpace=wrap;html=1;aspect=fixed;" vertex="1" parent="1">
          <mxGeometry x="360" y="400" width="40" height="40" as="geometry" />
        </mxCell>
        <mxCell id="jaiPWfwtfeqF_VilXt1v-203" value="" style="whiteSpace=wrap;html=1;aspect=fixed;" vertex="1" parent="1">
          <mxGeometry x="400" y="400" width="40" height="40" as="geometry" />
        </mxCell>
        <mxCell id="jaiPWfwtfeqF_VilXt1v-204" value="" style="whiteSpace=wrap;html=1;aspect=fixed;" vertex="1" parent="1">
          <mxGeometry x="280" y="400" width="40" height="40" as="geometry" />
        </mxCell>
        <mxCell id="jaiPWfwtfeqF_VilXt1v-205" value="" style="whiteSpace=wrap;html=1;aspect=fixed;" vertex="1" parent="1">
          <mxGeometry x="440" y="400" width="40" height="40" as="geometry" />
        </mxCell>
        <mxCell id="jaiPWfwtfeqF_VilXt1v-206" value="" style="whiteSpace=wrap;html=1;aspect=fixed;" vertex="1" parent="1">
          <mxGeometry x="120" y="440" width="40" height="40" as="geometry" />
        </mxCell>
        <mxCell id="jaiPWfwtfeqF_VilXt1v-207" value="" style="whiteSpace=wrap;html=1;aspect=fixed;" vertex="1" parent="1">
          <mxGeometry x="160" y="440" width="40" height="40" as="geometry" />
        </mxCell>
        <mxCell id="jaiPWfwtfeqF_VilXt1v-208" value="" style="whiteSpace=wrap;html=1;aspect=fixed;" vertex="1" parent="1">
          <mxGeometry x="200" y="440" width="40" height="40" as="geometry" />
        </mxCell>
        <mxCell id="jaiPWfwtfeqF_VilXt1v-209" value="" style="whiteSpace=wrap;html=1;aspect=fixed;" vertex="1" parent="1">
          <mxGeometry x="240" y="440" width="40" height="40" as="geometry" />
        </mxCell>
        <mxCell id="jaiPWfwtfeqF_VilXt1v-210" value="" style="whiteSpace=wrap;html=1;aspect=fixed;" vertex="1" parent="1">
          <mxGeometry x="120" y="440" width="40" height="40" as="geometry" />
        </mxCell>
        <mxCell id="jaiPWfwtfeqF_VilXt1v-211" value="" style="whiteSpace=wrap;html=1;aspect=fixed;" vertex="1" parent="1">
          <mxGeometry x="160" y="440" width="40" height="40" as="geometry" />
        </mxCell>
        <mxCell id="jaiPWfwtfeqF_VilXt1v-212" value="" style="whiteSpace=wrap;html=1;aspect=fixed;" vertex="1" parent="1">
          <mxGeometry x="200" y="440" width="40" height="40" as="geometry" />
        </mxCell>
        <mxCell id="jaiPWfwtfeqF_VilXt1v-213" value="" style="whiteSpace=wrap;html=1;aspect=fixed;" vertex="1" parent="1">
          <mxGeometry x="240" y="440" width="40" height="40" as="geometry" />
        </mxCell>
        <mxCell id="jaiPWfwtfeqF_VilXt1v-214" value="" style="whiteSpace=wrap;html=1;aspect=fixed;" vertex="1" parent="1">
          <mxGeometry x="120" y="440" width="40" height="40" as="geometry" />
        </mxCell>
        <mxCell id="jaiPWfwtfeqF_VilXt1v-215" value="" style="whiteSpace=wrap;html=1;aspect=fixed;" vertex="1" parent="1">
          <mxGeometry x="280" y="440" width="40" height="40" as="geometry" />
        </mxCell>
        <mxCell id="jaiPWfwtfeqF_VilXt1v-216" value="" style="whiteSpace=wrap;html=1;aspect=fixed;" vertex="1" parent="1">
          <mxGeometry x="320" y="440" width="40" height="40" as="geometry" />
        </mxCell>
        <mxCell id="jaiPWfwtfeqF_VilXt1v-217" value="" style="whiteSpace=wrap;html=1;aspect=fixed;" vertex="1" parent="1">
          <mxGeometry x="360" y="440" width="40" height="40" as="geometry" />
        </mxCell>
        <mxCell id="jaiPWfwtfeqF_VilXt1v-218" value="" style="whiteSpace=wrap;html=1;aspect=fixed;" vertex="1" parent="1">
          <mxGeometry x="400" y="440" width="40" height="40" as="geometry" />
        </mxCell>
        <mxCell id="jaiPWfwtfeqF_VilXt1v-219" value="" style="whiteSpace=wrap;html=1;aspect=fixed;" vertex="1" parent="1">
          <mxGeometry x="280" y="440" width="40" height="40" as="geometry" />
        </mxCell>
        <mxCell id="jaiPWfwtfeqF_VilXt1v-220" value="" style="whiteSpace=wrap;html=1;aspect=fixed;" vertex="1" parent="1">
          <mxGeometry x="320" y="440" width="40" height="40" as="geometry" />
        </mxCell>
        <mxCell id="jaiPWfwtfeqF_VilXt1v-221" value="" style="whiteSpace=wrap;html=1;aspect=fixed;" vertex="1" parent="1">
          <mxGeometry x="360" y="440" width="40" height="40" as="geometry" />
        </mxCell>
        <mxCell id="jaiPWfwtfeqF_VilXt1v-222" value="" style="whiteSpace=wrap;html=1;aspect=fixed;" vertex="1" parent="1">
          <mxGeometry x="400" y="440" width="40" height="40" as="geometry" />
        </mxCell>
        <mxCell id="jaiPWfwtfeqF_VilXt1v-223" value="" style="whiteSpace=wrap;html=1;aspect=fixed;" vertex="1" parent="1">
          <mxGeometry x="280" y="440" width="40" height="40" as="geometry" />
        </mxCell>
        <mxCell id="jaiPWfwtfeqF_VilXt1v-224" value="" style="whiteSpace=wrap;html=1;aspect=fixed;" vertex="1" parent="1">
          <mxGeometry x="440" y="440" width="40" height="40" as="geometry" />
        </mxCell>
        <mxCell id="jaiPWfwtfeqF_VilXt1v-225" value="" style="ellipse;whiteSpace=wrap;html=1;aspect=fixed;fontSize=18;" vertex="1" parent="1">
          <mxGeometry x="680" y="80" width="40" height="40" as="geometry" />
        </mxCell>
        <mxCell id="jaiPWfwtfeqF_VilXt1v-226" value="" style="ellipse;whiteSpace=wrap;html=1;aspect=fixed;fontSize=18;" vertex="1" parent="1">
          <mxGeometry x="680" y="140" width="40" height="40" as="geometry" />
        </mxCell>
        <mxCell id="jaiPWfwtfeqF_VilXt1v-227" value="" style="ellipse;whiteSpace=wrap;html=1;aspect=fixed;fontSize=18;" vertex="1" parent="1">
          <mxGeometry x="680" y="200" width="40" height="40" as="geometry" />
        </mxCell>
        <mxCell id="jaiPWfwtfeqF_VilXt1v-231" value="" style="ellipse;whiteSpace=wrap;html=1;aspect=fixed;fontSize=18;" vertex="1" parent="1">
          <mxGeometry x="680" y="560" width="40" height="40" as="geometry" />
        </mxCell>
        <mxCell id="jaiPWfwtfeqF_VilXt1v-232" value="" style="ellipse;whiteSpace=wrap;html=1;aspect=fixed;fontSize=18;" vertex="1" parent="1">
          <mxGeometry x="680" y="620" width="40" height="40" as="geometry" />
        </mxCell>
        <mxCell id="jaiPWfwtfeqF_VilXt1v-233" value="" style="ellipse;whiteSpace=wrap;html=1;aspect=fixed;fontSize=18;" vertex="1" parent="1">
          <mxGeometry x="680" y="680" width="40" height="40" as="geometry" />
        </mxCell>
        <mxCell id="jaiPWfwtfeqF_VilXt1v-234" value="" style="ellipse;whiteSpace=wrap;html=1;aspect=fixed;fontSize=18;" vertex="1" parent="1">
          <mxGeometry x="680" y="560" width="40" height="40" as="geometry" />
        </mxCell>
        <mxCell id="jaiPWfwtfeqF_VilXt1v-235" value="" style="ellipse;whiteSpace=wrap;html=1;aspect=fixed;fontSize=18;" vertex="1" parent="1">
          <mxGeometry x="680" y="620" width="40" height="40" as="geometry" />
        </mxCell>
        <mxCell id="jaiPWfwtfeqF_VilXt1v-236" value="" style="ellipse;whiteSpace=wrap;html=1;aspect=fixed;fontSize=18;" vertex="1" parent="1">
          <mxGeometry x="680" y="680" width="40" height="40" as="geometry" />
        </mxCell>
        <mxCell id="jaiPWfwtfeqF_VilXt1v-237" value="" style="ellipse;whiteSpace=wrap;html=1;aspect=fixed;fontSize=18;" vertex="1" parent="1">
          <mxGeometry x="690" y="340" width="20" height="20" as="geometry" />
        </mxCell>
        <mxCell id="jaiPWfwtfeqF_VilXt1v-238" value="" style="ellipse;whiteSpace=wrap;html=1;aspect=fixed;fontSize=18;" vertex="1" parent="1">
          <mxGeometry x="690" y="377.5" width="20" height="20" as="geometry" />
        </mxCell>
        <mxCell id="jaiPWfwtfeqF_VilXt1v-239" value="" style="ellipse;whiteSpace=wrap;html=1;aspect=fixed;fontSize=18;" vertex="1" parent="1">
          <mxGeometry x="690" y="420" width="20" height="20" as="geometry" />
        </mxCell>
        <mxCell id="jaiPWfwtfeqF_VilXt1v-240" value="" style="endArrow=none;html=1;fontSize=18;" edge="1" parent="1">
          <mxGeometry width="50" height="50" relative="1" as="geometry">
            <mxPoint x="490" y="80" as="sourcePoint" />
            <mxPoint x="670" y="80" as="targetPoint" />
          </mxGeometry>
        </mxCell>
        <mxCell id="jaiPWfwtfeqF_VilXt1v-241" value="" style="endArrow=none;html=1;fontSize=18;" edge="1" parent="1">
          <mxGeometry width="50" height="50" relative="1" as="geometry">
            <mxPoint x="490" y="479" as="sourcePoint" />
            <mxPoint x="670" y="720" as="targetPoint" />
          </mxGeometry>
        </mxCell>
        <mxCell id="jaiPWfwtfeqF_VilXt1v-242" value="" style="shape=curlyBracket;whiteSpace=wrap;html=1;rounded=1;rotation=0;" vertex="1" parent="1">
          <mxGeometry x="660" y="81.25" width="20" height="638.75" as="geometry" />
        </mxCell>
        <mxCell id="jaiPWfwtfeqF_VilXt1v-243" value="28&lt;sup&gt;2&lt;/sup&gt;" style="text;html=1;strokeColor=none;fillColor=none;align=center;verticalAlign=middle;whiteSpace=wrap;rounded=0;fontSize=18;" vertex="1" parent="1">
          <mxGeometry x="620" y="390.62" width="40" height="20" as="geometry" />
        </mxCell>
        <mxCell id="jaiPWfwtfeqF_VilXt1v-244" value="" style="ellipse;whiteSpace=wrap;html=1;aspect=fixed;fontSize=18;" vertex="1" parent="1">
          <mxGeometry x="880" y="140.63" width="40" height="40" as="geometry" />
        </mxCell>
        <mxCell id="jaiPWfwtfeqF_VilXt1v-245" value="" style="ellipse;whiteSpace=wrap;html=1;aspect=fixed;fontSize=18;" vertex="1" parent="1">
          <mxGeometry x="880" y="200.63" width="40" height="40" as="geometry" />
        </mxCell>
        <mxCell id="jaiPWfwtfeqF_VilXt1v-246" value="" style="ellipse;whiteSpace=wrap;html=1;aspect=fixed;fontSize=18;" vertex="1" parent="1">
          <mxGeometry x="880" y="260.63" width="40" height="40" as="geometry" />
        </mxCell>
        <mxCell id="jaiPWfwtfeqF_VilXt1v-251" value="" style="ellipse;whiteSpace=wrap;html=1;aspect=fixed;fontSize=18;" vertex="1" parent="1">
          <mxGeometry x="880" y="500.63" width="40" height="40" as="geometry" />
        </mxCell>
        <mxCell id="jaiPWfwtfeqF_VilXt1v-252" value="" style="ellipse;whiteSpace=wrap;html=1;aspect=fixed;fontSize=18;" vertex="1" parent="1">
          <mxGeometry x="880" y="560.63" width="40" height="40" as="geometry" />
        </mxCell>
        <mxCell id="jaiPWfwtfeqF_VilXt1v-253" value="" style="ellipse;whiteSpace=wrap;html=1;aspect=fixed;fontSize=18;" vertex="1" parent="1">
          <mxGeometry x="880" y="620.63" width="40" height="40" as="geometry" />
        </mxCell>
        <mxCell id="jaiPWfwtfeqF_VilXt1v-254" value="" style="ellipse;whiteSpace=wrap;html=1;aspect=fixed;fontSize=18;" vertex="1" parent="1">
          <mxGeometry x="1050" y="140.63" width="40" height="40" as="geometry" />
        </mxCell>
        <mxCell id="jaiPWfwtfeqF_VilXt1v-255" value="" style="ellipse;whiteSpace=wrap;html=1;aspect=fixed;fontSize=18;" vertex="1" parent="1">
          <mxGeometry x="1050" y="200.63" width="40" height="40" as="geometry" />
        </mxCell>
        <mxCell id="jaiPWfwtfeqF_VilXt1v-256" value="" style="ellipse;whiteSpace=wrap;html=1;aspect=fixed;fontSize=18;" vertex="1" parent="1">
          <mxGeometry x="1050" y="260.63" width="40" height="40" as="geometry" />
        </mxCell>
        <mxCell id="jaiPWfwtfeqF_VilXt1v-260" value="" style="ellipse;whiteSpace=wrap;html=1;aspect=fixed;fontSize=18;" vertex="1" parent="1">
          <mxGeometry x="1050" y="500.63" width="40" height="40" as="geometry" />
        </mxCell>
        <mxCell id="jaiPWfwtfeqF_VilXt1v-261" value="" style="ellipse;whiteSpace=wrap;html=1;aspect=fixed;fontSize=18;" vertex="1" parent="1">
          <mxGeometry x="1050" y="560.63" width="40" height="40" as="geometry" />
        </mxCell>
        <mxCell id="jaiPWfwtfeqF_VilXt1v-262" value="" style="ellipse;whiteSpace=wrap;html=1;aspect=fixed;fontSize=18;" vertex="1" parent="1">
          <mxGeometry x="1050" y="620.63" width="40" height="40" as="geometry" />
        </mxCell>
        <mxCell id="jaiPWfwtfeqF_VilXt1v-263" value="" style="shape=curlyBracket;whiteSpace=wrap;html=1;rounded=1;rotation=0;" vertex="1" parent="1">
          <mxGeometry x="850" y="140" width="20" height="530" as="geometry" />
        </mxCell>
        <mxCell id="jaiPWfwtfeqF_VilXt1v-264" value="16" style="text;html=1;strokeColor=none;fillColor=none;align=center;verticalAlign=middle;whiteSpace=wrap;rounded=0;fontSize=18;" vertex="1" parent="1">
          <mxGeometry x="810" y="390.62" width="40" height="20" as="geometry" />
        </mxCell>
        <mxCell id="jaiPWfwtfeqF_VilXt1v-265" value="" style="endArrow=classic;html=1;fontSize=18;entryX=0;entryY=0;entryDx=0;entryDy=0;" edge="1" parent="1" target="jaiPWfwtfeqF_VilXt1v-244">
          <mxGeometry width="50" height="50" relative="1" as="geometry">
            <mxPoint x="720" y="100" as="sourcePoint" />
            <mxPoint x="770" y="50" as="targetPoint" />
          </mxGeometry>
        </mxCell>
        <mxCell id="jaiPWfwtfeqF_VilXt1v-266" value="" style="endArrow=classic;html=1;fontSize=18;entryX=0;entryY=0;entryDx=0;entryDy=0;exitX=1;exitY=0.5;exitDx=0;exitDy=0;" edge="1" parent="1" source="jaiPWfwtfeqF_VilXt1v-226">
          <mxGeometry width="50" height="50" relative="1" as="geometry">
            <mxPoint x="714.14" y="113.51" as="sourcePoint" />
            <mxPoint x="879.9978643762689" y="159.99786437626904" as="targetPoint" />
          </mxGeometry>
        </mxCell>
        <mxCell id="jaiPWfwtfeqF_VilXt1v-267" value="" style="endArrow=classic;html=1;fontSize=18;entryX=0;entryY=0;entryDx=0;entryDy=0;" edge="1" parent="1">
          <mxGeometry width="50" height="50" relative="1" as="geometry">
            <mxPoint x="720" y="207" as="sourcePoint" />
            <mxPoint x="879.9978643762689" y="166.48786437626904" as="targetPoint" />
          </mxGeometry>
        </mxCell>
        <mxCell id="jaiPWfwtfeqF_VilXt1v-268" value="" style="endArrow=classic;html=1;fontSize=18;exitX=0.725;exitY=-0.05;exitDx=0;exitDy=0;exitPerimeter=0;entryX=0;entryY=0.709;entryDx=0;entryDy=0;entryPerimeter=0;" edge="1" parent="1" source="jaiPWfwtfeqF_VilXt1v-234" target="jaiPWfwtfeqF_VilXt1v-244">
          <mxGeometry width="50" height="50" relative="1" as="geometry">
            <mxPoint x="730" y="133.51" as="sourcePoint" />
            <mxPoint x="896" y="180" as="targetPoint" />
          </mxGeometry>
        </mxCell>
        <mxCell id="jaiPWfwtfeqF_VilXt1v-269" value="" style="endArrow=classic;html=1;fontSize=18;entryX=0;entryY=1;entryDx=0;entryDy=0;exitX=1;exitY=0;exitDx=0;exitDy=0;" edge="1" parent="1" source="jaiPWfwtfeqF_VilXt1v-235" target="jaiPWfwtfeqF_VilXt1v-244">
          <mxGeometry width="50" height="50" relative="1" as="geometry">
            <mxPoint x="924.14" y="170" as="sourcePoint" />
            <mxPoint x="1089.9978643762688" y="216.48786437626904" as="targetPoint" />
          </mxGeometry>
        </mxCell>
        <mxCell id="jaiPWfwtfeqF_VilXt1v-271" value="" style="endArrow=classic;html=1;fontSize=18;entryX=0;entryY=0;entryDx=0;entryDy=0;exitX=0.825;exitY=0;exitDx=0;exitDy=0;exitPerimeter=0;" edge="1" parent="1" source="jaiPWfwtfeqF_VilXt1v-236">
          <mxGeometry width="50" height="50" relative="1" as="geometry">
            <mxPoint x="730" y="134.14" as="sourcePoint" />
            <mxPoint x="895.8578643762689" y="180.62786437626903" as="targetPoint" />
          </mxGeometry>
        </mxCell>
        <mxCell id="jaiPWfwtfeqF_VilXt1v-272" value="" style="shape=curlyBracket;whiteSpace=wrap;html=1;rounded=1;rotation=0;" vertex="1" parent="1">
          <mxGeometry x="1020" y="140" width="20" height="530" as="geometry" />
        </mxCell>
        <mxCell id="jaiPWfwtfeqF_VilXt1v-273" value="16" style="text;html=1;strokeColor=none;fillColor=none;align=center;verticalAlign=middle;whiteSpace=wrap;rounded=0;fontSize=18;" vertex="1" parent="1">
          <mxGeometry x="980" y="390.62" width="40" height="20" as="geometry" />
        </mxCell>
        <mxCell id="jaiPWfwtfeqF_VilXt1v-274" value="" style="ellipse;whiteSpace=wrap;html=1;aspect=fixed;fontSize=18;" vertex="1" parent="1">
          <mxGeometry x="1060" y="350.63" width="20" height="20" as="geometry" />
        </mxCell>
        <mxCell id="jaiPWfwtfeqF_VilXt1v-275" value="" style="ellipse;whiteSpace=wrap;html=1;aspect=fixed;fontSize=18;" vertex="1" parent="1">
          <mxGeometry x="1060" y="388.13" width="20" height="20" as="geometry" />
        </mxCell>
        <mxCell id="jaiPWfwtfeqF_VilXt1v-276" value="" style="ellipse;whiteSpace=wrap;html=1;aspect=fixed;fontSize=18;" vertex="1" parent="1">
          <mxGeometry x="1060" y="430.63" width="20" height="20" as="geometry" />
        </mxCell>
        <mxCell id="jaiPWfwtfeqF_VilXt1v-277" value="" style="ellipse;whiteSpace=wrap;html=1;aspect=fixed;fontSize=18;" vertex="1" parent="1">
          <mxGeometry x="890" y="350.63" width="20" height="20" as="geometry" />
        </mxCell>
        <mxCell id="jaiPWfwtfeqF_VilXt1v-278" value="" style="ellipse;whiteSpace=wrap;html=1;aspect=fixed;fontSize=18;" vertex="1" parent="1">
          <mxGeometry x="890" y="388.13" width="20" height="20" as="geometry" />
        </mxCell>
        <mxCell id="jaiPWfwtfeqF_VilXt1v-279" value="" style="ellipse;whiteSpace=wrap;html=1;aspect=fixed;fontSize=18;" vertex="1" parent="1">
          <mxGeometry x="890" y="430.63" width="20" height="20" as="geometry" />
        </mxCell>
        <mxCell id="jaiPWfwtfeqF_VilXt1v-280" value="" style="ellipse;whiteSpace=wrap;html=1;aspect=fixed;fontSize=18;fillColor=#B3B3B3;" vertex="1" parent="1">
          <mxGeometry x="1241" y="200.63" width="40" height="40" as="geometry" />
        </mxCell>
        <mxCell id="jaiPWfwtfeqF_VilXt1v-281" value="" style="ellipse;whiteSpace=wrap;html=1;aspect=fixed;fontSize=18;" vertex="1" parent="1">
          <mxGeometry x="1241" y="257.5" width="40" height="40" as="geometry" />
        </mxCell>
        <mxCell id="jaiPWfwtfeqF_VilXt1v-284" value="" style="ellipse;whiteSpace=wrap;html=1;aspect=fixed;fontSize=18;fillColor=#545454;" vertex="1" parent="1">
          <mxGeometry x="1241" y="500.63" width="40" height="40" as="geometry" />
        </mxCell>
        <mxCell id="jaiPWfwtfeqF_VilXt1v-285" value="" style="ellipse;whiteSpace=wrap;html=1;aspect=fixed;fontSize=18;fillColor=#050505;" vertex="1" parent="1">
          <mxGeometry x="1241" y="560" width="40" height="40" as="geometry" />
        </mxCell>
        <mxCell id="jaiPWfwtfeqF_VilXt1v-289" value="" style="shape=curlyBracket;whiteSpace=wrap;html=1;rounded=1;rotation=0;" vertex="1" parent="1">
          <mxGeometry x="1221" y="200" width="20" height="400" as="geometry" />
        </mxCell>
        <mxCell id="jaiPWfwtfeqF_VilXt1v-290" value="&lt;div&gt;10&lt;/div&gt;" style="text;html=1;strokeColor=none;fillColor=none;align=center;verticalAlign=middle;whiteSpace=wrap;rounded=0;fontSize=18;" vertex="1" parent="1">
          <mxGeometry x="1181" y="388.75" width="40" height="20" as="geometry" />
        </mxCell>
        <mxCell id="jaiPWfwtfeqF_VilXt1v-291" value="" style="ellipse;whiteSpace=wrap;html=1;aspect=fixed;fontSize=18;" vertex="1" parent="1">
          <mxGeometry x="1251" y="348.75" width="20" height="20" as="geometry" />
        </mxCell>
        <mxCell id="jaiPWfwtfeqF_VilXt1v-292" value="" style="ellipse;whiteSpace=wrap;html=1;aspect=fixed;fontSize=18;" vertex="1" parent="1">
          <mxGeometry x="1251" y="386.25" width="20" height="20" as="geometry" />
        </mxCell>
        <mxCell id="jaiPWfwtfeqF_VilXt1v-293" value="" style="ellipse;whiteSpace=wrap;html=1;aspect=fixed;fontSize=18;" vertex="1" parent="1">
          <mxGeometry x="1251" y="428.75" width="20" height="20" as="geometry" />
        </mxCell>
        <mxCell id="jaiPWfwtfeqF_VilXt1v-294" value="" style="endArrow=classic;html=1;fontSize=18;entryX=0;entryY=0;entryDx=0;entryDy=0;exitX=1;exitY=0;exitDx=0;exitDy=0;" edge="1" parent="1" source="jaiPWfwtfeqF_VilXt1v-244">
          <mxGeometry width="50" height="50" relative="1" as="geometry">
            <mxPoint x="890" y="105" as="sourcePoint" />
            <mxPoint x="1055.857864376269" y="151.48786437626904" as="targetPoint" />
          </mxGeometry>
        </mxCell>
        <mxCell id="jaiPWfwtfeqF_VilXt1v-295" value="" style="endArrow=classic;html=1;fontSize=18;entryX=0;entryY=0;entryDx=0;entryDy=0;exitX=1;exitY=0;exitDx=0;exitDy=0;" edge="1" parent="1" source="jaiPWfwtfeqF_VilXt1v-245">
          <mxGeometry width="50" height="50" relative="1" as="geometry">
            <mxPoint x="884.14" y="113.51" as="sourcePoint" />
            <mxPoint x="1049.9978643762688" y="159.99786437626904" as="targetPoint" />
          </mxGeometry>
        </mxCell>
        <mxCell id="jaiPWfwtfeqF_VilXt1v-296" value="" style="endArrow=classic;html=1;fontSize=18;entryX=-0.025;entryY=0.684;entryDx=0;entryDy=0;exitX=1;exitY=0;exitDx=0;exitDy=0;entryPerimeter=0;" edge="1" parent="1" source="jaiPWfwtfeqF_VilXt1v-246" target="jaiPWfwtfeqF_VilXt1v-254">
          <mxGeometry width="50" height="50" relative="1" as="geometry">
            <mxPoint x="890" y="130" as="sourcePoint" />
            <mxPoint x="1055.857864376269" y="176.48786437626904" as="targetPoint" />
          </mxGeometry>
        </mxCell>
        <mxCell id="jaiPWfwtfeqF_VilXt1v-297" value="" style="endArrow=classic;html=1;fontSize=18;" edge="1" parent="1">
          <mxGeometry width="50" height="50" relative="1" as="geometry">
            <mxPoint x="910" y="500" as="sourcePoint" />
            <mxPoint x="1050" y="171" as="targetPoint" />
          </mxGeometry>
        </mxCell>
        <mxCell id="jaiPWfwtfeqF_VilXt1v-298" value="" style="endArrow=classic;html=1;fontSize=18;entryX=-0.025;entryY=0.684;entryDx=0;entryDy=0;entryPerimeter=0;" edge="1" parent="1">
          <mxGeometry width="50" height="50" relative="1" as="geometry">
            <mxPoint x="910" y="560" as="sourcePoint" />
            <mxPoint x="1059" y="177.99" as="targetPoint" />
          </mxGeometry>
        </mxCell>
        <mxCell id="jaiPWfwtfeqF_VilXt1v-299" value="" style="endArrow=classic;html=1;fontSize=18;entryX=0.5;entryY=1;entryDx=0;entryDy=0;exitX=0.825;exitY=-0.016;exitDx=0;exitDy=0;exitPerimeter=0;" edge="1" parent="1" source="jaiPWfwtfeqF_VilXt1v-253" target="jaiPWfwtfeqF_VilXt1v-254">
          <mxGeometry width="50" height="50" relative="1" as="geometry">
            <mxPoint x="934.1421356237311" y="286.48786437626904" as="sourcePoint" />
            <mxPoint x="1069" y="187.99" as="targetPoint" />
          </mxGeometry>
        </mxCell>
        <mxCell id="jaiPWfwtfeqF_VilXt1v-300" value="" style="endArrow=classic;html=1;fontSize=18;entryX=0;entryY=0;entryDx=0;entryDy=0;exitX=1.025;exitY=0.334;exitDx=0;exitDy=0;exitPerimeter=0;" edge="1" parent="1" source="jaiPWfwtfeqF_VilXt1v-254">
          <mxGeometry width="50" height="50" relative="1" as="geometry">
            <mxPoint x="1109.282135623731" y="200.62786437626903" as="sourcePoint" />
            <mxPoint x="1250.9978643762688" y="205.62786437626903" as="targetPoint" />
          </mxGeometry>
        </mxCell>
        <mxCell id="jaiPWfwtfeqF_VilXt1v-301" value="" style="endArrow=classic;html=1;fontSize=18;exitX=1;exitY=0;exitDx=0;exitDy=0;" edge="1" parent="1" source="jaiPWfwtfeqF_VilXt1v-255">
          <mxGeometry width="50" height="50" relative="1" as="geometry">
            <mxPoint x="1081" y="170" as="sourcePoint" />
            <mxPoint x="1241" y="210" as="targetPoint" />
          </mxGeometry>
        </mxCell>
        <mxCell id="jaiPWfwtfeqF_VilXt1v-302" value="" style="endArrow=classic;html=1;fontSize=18;entryX=0;entryY=0.5;entryDx=0;entryDy=0;exitX=1;exitY=0;exitDx=0;exitDy=0;" edge="1" parent="1" source="jaiPWfwtfeqF_VilXt1v-256" target="jaiPWfwtfeqF_VilXt1v-280">
          <mxGeometry width="50" height="50" relative="1" as="geometry">
            <mxPoint x="1081" y="180" as="sourcePoint" />
            <mxPoint x="1240.9978643762688" y="231.63786437626902" as="targetPoint" />
          </mxGeometry>
        </mxCell>
        <mxCell id="jaiPWfwtfeqF_VilXt1v-303" value="" style="endArrow=classic;html=1;fontSize=18;entryX=0;entryY=0.5;entryDx=0;entryDy=0;exitX=0.5;exitY=0;exitDx=0;exitDy=0;" edge="1" parent="1" source="jaiPWfwtfeqF_VilXt1v-260" target="jaiPWfwtfeqF_VilXt1v-280">
          <mxGeometry width="50" height="50" relative="1" as="geometry">
            <mxPoint x="1090.002135623731" y="275.85786437626905" as="sourcePoint" />
            <mxPoint x="1246.86" y="230" as="targetPoint" />
          </mxGeometry>
        </mxCell>
        <mxCell id="jaiPWfwtfeqF_VilXt1v-304" value="" style="endArrow=classic;html=1;fontSize=18;entryX=0;entryY=0.5;entryDx=0;entryDy=0;exitX=0.725;exitY=-0.041;exitDx=0;exitDy=0;exitPerimeter=0;" edge="1" parent="1" source="jaiPWfwtfeqF_VilXt1v-261">
          <mxGeometry width="50" height="50" relative="1" as="geometry">
            <mxPoint x="1090.002135623731" y="279.99786437626904" as="sourcePoint" />
            <mxPoint x="1246.86" y="234.14" as="targetPoint" />
          </mxGeometry>
        </mxCell>
        <mxCell id="jaiPWfwtfeqF_VilXt1v-305" value="" style="endArrow=classic;html=1;fontSize=18;entryX=0;entryY=0.5;entryDx=0;entryDy=0;" edge="1" parent="1">
          <mxGeometry width="50" height="50" relative="1" as="geometry">
            <mxPoint x="1080" y="620" as="sourcePoint" />
            <mxPoint x="1256.86" y="240.63" as="targetPoint" />
          </mxGeometry>
        </mxCell>
        <mxCell id="jaiPWfwtfeqF_VilXt1v-306" value="Input Layer" style="text;html=1;strokeColor=none;fillColor=none;align=center;verticalAlign=middle;whiteSpace=wrap;rounded=0;fontSize=18;" vertex="1" parent="1">
          <mxGeometry x="680" y="40" width="40" height="20" as="geometry" />
        </mxCell>
        <mxCell id="jaiPWfwtfeqF_VilXt1v-307" value="Hidden Layer" style="text;html=1;strokeColor=none;fillColor=none;align=center;verticalAlign=middle;whiteSpace=wrap;rounded=0;fontSize=18;" vertex="1" parent="1">
          <mxGeometry x="880" y="90" width="200" height="20" as="geometry" />
        </mxCell>
        <mxCell id="jaiPWfwtfeqF_VilXt1v-308" value="Output Layer" style="text;html=1;strokeColor=none;fillColor=none;align=center;verticalAlign=middle;whiteSpace=wrap;rounded=0;fontSize=18;" vertex="1" parent="1">
          <mxGeometry x="1241" y="160" width="40" height="20" as="geometry" />
        </mxCell>
      </root>
    </mxGraphModel>
  </diagram>
</mxfile>
